<?xml version="1.0" encoding="UTF-8"?>
<svg width="199px" height="36px" viewBox="0 0 199 36" version="1.1" xmlns="http://www.w3.org/2000/svg" xmlns:xlink="http://www.w3.org/1999/xlink">
    <!-- Generator: Sketch 53.1 (72631) - https://sketchapp.com -->
    <title>logo</title>
    <desc>Created with Sketch.</desc>
    <g id="Page-1" stroke="none" stroke-width="1" fill="none" fill-rule="evenodd">
        <g id="logo" fill-rule="nonzero">
            <path d="M0,36 L4.65,11 L13.336,11 C16.826,11 19.478,11.579 21.286,12.735 C23.096,13.892 24,15.586 24,17.82 C24,19.368 23.537,20.602 22.614,21.519 C21.69,22.436 20.35,22.986 18.594,23.169 C20.11,23.397 21.302,23.965 22.17,24.875 C23.037,25.785 23.47,26.916 23.47,28.27 C23.47,30.66 22.496,32.544 20.549,33.926 C18.601,35.308 15.927,36 12.525,36 L0,36 Z M10,30 L10.672,30 C12.284,30 13.409,29.833 14.045,29.5 C14.681,29.167 15,28.6 15,27.804 C15,27.185 14.778,26.729 14.336,26.438 C13.893,26.146 13.194,26 12.236,26 L10.744,26 L10,30 Z M172.944,34.245 L185.451,11 L195.641,11 L199,36 L189.833,36 L189.657,32.678 L183.462,32.678 L182.055,36 L163.876,36 L160.071,25.054 L158.041,36 L149,36 L153.606,11 L162.664,11 L160.771,21.144 L167.441,11 L178,11 L168.568,23.62 L172.944,34.245 Z M25,36 L29.662,11 L38.828,11 L37.24,19.637 L42.211,19.637 L43.816,11 L53,11 L48.304,36 L39.138,36 L40.847,27.014 L35.858,27.014 L34.15,36 L25,36 Z M53,36 L57.689,11 L67,11 L62.327,36 L53,36 Z M67,36 L71.664,11 L80.938,11 L83.84,18.94 C83.887,19.066 83.955,19.26 84.047,19.522 C84.693,21.252 85.141,22.749 85.395,24.012 L87.829,11 L97,11 L92.32,36 L83.062,36 L78.382,23.09 C78.335,24.263 78.077,26.164 77.604,28.795 L77.57,28.999 L76.275,36 L67,36 Z M97,36 L101.664,11 L110.938,11 L113.84,18.94 C113.886,19.066 113.956,19.26 114.049,19.522 C114.692,21.252 115.141,22.749 115.394,24.012 L117.83,11 L127,11 L122.32,36 L113.063,36 L108.382,23.09 C108.335,24.263 108.077,26.164 107.605,28.795 L107.57,28.999 L106.276,36 L97,36 Z M127,36 L131.662,11 L149,11 L147.756,17.783 L139.519,17.783 L139.052,20.196 L146.808,20.196 L145.633,26.524 L137.896,26.524 L137.396,29.217 L146.376,29.217 L145.113,36 L127,36 Z M186,27 L189,27 L188.905,24.233 C188.891052,24.0161737 188.880384,23.7991489 188.873,23.582 C188.826146,22.6543564 188.799473,21.7258035 188.793,20.797 C188.793,20.327 188.795,19.966 188.801,19.714 C188.806,19.46 188.814,19.222 188.825,19 C188.638977,19.6700639 188.441281,20.336832 188.232,21 C188.049592,21.575966 187.856224,22.1484033 187.652,22.717 L186,27 Z M12,20 L12.467,20 C13.686,20 14.58,19.871 15.147,19.613 C15.716,19.355 16,18.947 16,18.387 C16,17.957 15.811,17.619 15.434,17.372 C15.057,17.124 14.534,17 13.864,17 L12.627,17 L12,20 Z" id="Combined-Shape" fill="#777878"></path>
            <polygon id="Path" fill="#D3D4D4" points="59.009 2.67 81 0 58 8"></polygon>
        </g>
    </g>
</svg>