<svg xmlns="http://www.w3.org/2000/svg" width="24" height="24" viewBox="0 0 24 24"><path fill="#1da1f2" fill-rule="evenodd" d="M22 5.924a8.173 8.173 0 0 1-2.356.645A4.11 4.11 0 0 0 21.448 4.3c-.793.47-1.67.812-2.607.995a4.103 4.103 0 0 0-6.99 3.742 11.646 11.646 0 0 1-8.459-4.288 4.096 4.096 0 0 0-.555 2.064 4.1 4.1 0 0 0 1.825 3.415 4.107 4.107 0 0 1-1.859-.512v.05a4.103 4.103 0 0 0 3.293 4.023 4.006 4.006 0 0 1-1.081.144c-.265 0-.523-.025-.773-.073a4.104 4.104 0 0 0 3.833 2.848 8.232 8.232 0 0 1-5.096 1.757A8.42 8.42 0 0 1 2 18.408a11.635 11.635 0 0 0 6.29 1.842c7.548 0 11.674-6.25 11.674-11.671 0-.179-.003-.357-.01-.532A8.3 8.3 0 0 0 22 5.924"/></svg>