<svg xmlns="http://www.w3.org/2000/svg" width="24" height="24" viewBox="0 0 24 24"><path class="youtube" fill="#cd201f" fill-rule="evenodd" d="M9.5 13.75v-5l5 2.509-5 2.491zm12.3-5.784s-.196-1.347-.795-1.94c-.76-.78-1.613-.783-2.004-.828C16.202 5 12.004 5 12.004 5h-.008s-4.199 0-6.997.198c-.391.045-1.243.049-2.005.828-.599.593-.794 1.94-.794 1.94S2 9.548 2 11.13v1.483c0 1.583.2 3.164.2 3.164s.195 1.347.794 1.94c.762.78 1.761.755 2.206.836 1.6.15 6.8.197 6.8.197s4.203-.006 7.001-.204c.39-.046 1.243-.05 2.004-.828.6-.594.795-1.94.795-1.94s.2-1.582.2-3.165V11.13c0-1.582-.2-3.164-.2-3.164z"/></svg>